<?xml version="1.0" encoding="UTF-8" standalone="no"?>
<!-- Created with Inkscape (http://www.inkscape.org/) -->

<svg
   xmlns:dc="http://purl.org/dc/elements/1.1/"
   xmlns:cc="http://creativecommons.org/ns#"
   xmlns:rdf="http://www.w3.org/1999/02/22-rdf-syntax-ns#"
   xmlns:svg="http://www.w3.org/2000/svg"
   xmlns="http://www.w3.org/2000/svg"
   xmlns:xlink="http://www.w3.org/1999/xlink"
   xmlns:sodipodi="http://sodipodi.sourceforge.net/DTD/sodipodi-0.dtd"
   xmlns:inkscape="http://www.inkscape.org/namespaces/inkscape"
   width="55.75164mm"
   height="14.343374mm"
   viewBox="0 0 197.54519 50.822979"
   id="svg8912"
   version="1.1"
   inkscape:version="0.92.3 (2405546, 2018-03-11)"
   sodipodi:docname="matchID-logo.svg"
   inkscape:export-filename="./matchID-logo.png"
   inkscape:export-xdpi="1000.3077"
   inkscape:export-ydpi="1000.3077">
  <defs
     id="defs8914">
    <linearGradient
       inkscape:collect="always"
       id="linearGradient4183">
      <stop
         id="stop4187"
         offset="0"
         style="stop-color:#ffffff;stop-opacity:0;" />
      <stop
         style="stop-color:#ffffff;stop-opacity:0.59625667"
         offset="0.3547895"
         id="stop4229" />
      <stop
         id="stop4185"
         offset="1"
         style="stop-color:#ffffff;stop-opacity:1;" />
    </linearGradient>
    <linearGradient
       id="linearGradient6928">
      <stop
         style="stop-color:#174791;stop-opacity:1;"
         offset="0"
         id="stop6930" />
      <stop
         style="stop-color:#c2001f;stop-opacity:0.31123918"
         offset="1"
         id="stop6934" />
    </linearGradient>
    <linearGradient
       inkscape:collect="always"
       id="linearGradient6450">
      <stop
         style="stop-color:#003189;stop-opacity:1;"
         offset="0"
         id="stop6452" />
      <stop
         style="stop-color:#003189;stop-opacity:0;"
         offset="1"
         id="stop6454" />
    </linearGradient>
    <linearGradient
       inkscape:collect="always"
       xlink:href="#linearGradient6450"
       id="linearGradient6456-3"
       x1="-419.73984"
       y1="-400.78754"
       x2="-460.14178"
       y2="-401.41888"
       gradientUnits="userSpaceOnUse"
       gradientTransform="matrix(1.0946986,0,0,1.0946986,251.47879,45.066851)" />
    <linearGradient
       inkscape:collect="always"
       xlink:href="#linearGradient4183"
       id="linearGradient4189"
       x1="-398.63919"
       y1="-393.46113"
       x2="-201.88051"
       y2="-393.46113"
       gradientUnits="userSpaceOnUse" />
  </defs>
  <sodipodi:namedview
     id="base"
     pagecolor="#ffffff"
     bordercolor="#666666"
     borderopacity="1.0"
     inkscape:pageopacity="0.0"
     inkscape:pageshadow="2"
     inkscape:zoom="2.8"
     inkscape:cx="100.40739"
     inkscape:cy="12.041092"
     inkscape:document-units="px"
     inkscape:current-layer="layer1"
     showgrid="false"
     inkscape:window-width="1364"
     inkscape:window-height="732"
     inkscape:window-x="0"
     inkscape:window-y="35"
     inkscape:window-maximized="0"
     fit-margin-top="0"
     fit-margin-left="0"
     fit-margin-right="0"
     fit-margin-bottom="0"
     showborder="true" />
  <metadata
     id="metadata8917">
    <rdf:RDF>
      <cc:Work
         rdf:about="">
        <dc:format>image/svg+xml</dc:format>
        <dc:type
           rdf:resource="http://purl.org/dc/dcmitype/StillImage" />
        <dc:title />
      </cc:Work>
    </rdf:RDF>
  </metadata>
  <g
     inkscape:label="Calque 1"
     inkscape:groupmode="layer"
     id="layer1"
     transform="translate(398.63919,418.86182)">
    <text
       xml:space="preserve"
       style="font-style:normal;font-weight:normal;line-height:0%;font-family:sans-serif;letter-spacing:0px;word-spacing:0px;fill:#e2011c;fill-opacity:1;stroke:none;stroke-width:1px;stroke-linecap:butt;stroke-linejoin:miter;stroke-opacity:1"
       x="-600.99713"
       y="-328.62854"
       id="text6351-3-9"><tspan
         sodipodi:role="line"
         id="tspan6353-1-4"
         x="-600.99713"
         y="-328.62854"
         style="font-style:normal;font-variant:normal;font-weight:normal;font-stretch:normal;font-size:44.39190292px;line-height:125%;font-family:Raleway;-inkscape-font-specification:'Raleway, Normal';text-align:start;writing-mode:lr-tb;text-anchor:start;fill:#e2011c;fill-opacity:1"> <tspan
   style="fill:#003189;fill-opacity:1"
   id="tspan6360-4-2" /></tspan></text>
    <g
       id="g4231">
      <path
         sodipodi:nodetypes="cccccccccccccccccccccccccccccccccc"
         inkscape:connector-curvature="0"
         id="path4241"
         d="m -218.86201,-418.74318 -179.77718,0 0,50.5641 188.15696,0 -0.68399,-3.07225 -2.27687,-2.44 -0.56923,-1.8499 -0.25819,-3.59367 1.97793,-2.70695 3.57689,-0.0358 2.84611,-0.6666 1.18978,-2.25891 -0.7791,-2.10593 0.80022,-1.76248 -0.30951,-0.73528 0.80929,-1.21921 -0.18875,-2.26829 2.03833,-0.68689 0.42881,-1.41904 -1.79524,-2.38224 -2.31765,-3.99485 1.39965,-1.38159 -1.97643,-4.72857 -1.99604,-3.33607 1.85564,-1.28947 -1.76957,-1.69827 -3.35493,-0.94859 -0.382,-2.02865 -0.66866,-0.1474 -1.46284,-0.15777 -2.77147,0.33017 -1.46567,-0.69937 -0.27629,-1.28012 z"
         style="color:#000000;clip-rule:nonzero;display:inline;overflow:visible;visibility:visible;opacity:1;isolation:auto;mix-blend-mode:normal;color-interpolation:sRGB;color-interpolation-filters:linearRGB;solid-color:#000000;solid-opacity:1;fill:url(#linearGradient4189);fill-opacity:1;fill-rule:evenodd;stroke:none;stroke-width:3;stroke-linecap:butt;stroke-linejoin:miter;stroke-miterlimit:4;stroke-dasharray:none;stroke-dashoffset:0;stroke-opacity:1;color-rendering:auto;image-rendering:auto;shape-rendering:auto;text-rendering:auto;enable-background:accumulate" />
      <g
         transform="matrix(0.48340278,0,0,0.48340278,-90.411986,-191.51466)"
         id="g7139" />
      <g
         transform="matrix(0.48340278,0,0,0.48340278,-89.910967,-191.38839)"
         id="text6351-3-1"
         style="font-style:normal;font-weight:normal;font-size:95.20922089px;line-height:125%;font-family:sans-serif;letter-spacing:0px;word-spacing:0px;fill:#e2011c;fill-opacity:1;stroke:#ffffff;stroke-width:6.4342289;stroke-linecap:butt;stroke-linejoin:miter;stroke-miterlimit:4;stroke-dasharray:none;stroke-opacity:1" />
      <g
         transform="matrix(0.48340278,0,0,0.48340278,-90.411986,-191.51466)"
         id="text6351-3"
         style="font-style:normal;font-weight:normal;font-size:95.20922089px;line-height:125%;font-family:sans-serif;letter-spacing:0px;word-spacing:0px;fill:#e2011c;fill-opacity:1;stroke:none;stroke-width:1px;stroke-linecap:butt;stroke-linejoin:miter;stroke-opacity:1" />
      <path
         sodipodi:nodetypes="ccccccccccccccccccccccccccccccccc"
         id="path3581-3-4-8"
         d="m -221.30365,-417.93462 1.20707,0.0235 1.03927,-0.17401 0.95549,1.55678 0.91305,-0.25867 3.87512,0.14826 -1.22817,-1.11628 2.32432,1.87846 0.38238,1.49448 3.35571,0.71734 1.76878,2.30953 -1.85597,1.24733 1.99673,3.22691 1.97555,4.57311 -1.39884,1.33583 2.31685,3.86382 1.7962,2.30492 -0.42975,1.37264 -2.03784,0.66331 0.18935,2.19457 -0.80967,1.17949 0.30891,0.71046 -0.79967,1.70485 0.77851,2.03709 -1.18957,2.18425 -2.84623,0.6449 -3.57618,0.0356 -1.97803,2.61763 0.25784,3.47523 0.56925,1.78879 2.27699,2.36012 0.71122,3.08783 -45.73133,0"
         style="fill:none;fill-opacity:1;fill-rule:evenodd;stroke:url(#linearGradient6456-3);stroke-width:1.41529596;stroke-linecap:butt;stroke-linejoin:miter;stroke-miterlimit:4;stroke-dasharray:none;stroke-opacity:1"
         inkscape:connector-curvature="0" />
    </g>
    <g
       aria-label="Browser"
       style="font-style:normal;font-variant:normal;font-weight:normal;font-stretch:normal;font-size:37.5px;line-height:1.25;font-family:FontAwesome;-inkscape-font-specification:FontAwesome;letter-spacing:0px;word-spacing:0px;fill:#003189;fill-opacity:1;stroke:none;stroke-width:0.9375"
       id="text850">
      <path
         d="m -384.78028,-406.49776 v 27.075 h 7.65 c 1.8375,0 3.7125,-0.0375 5.5875,-0.825 2.925,-1.2375 4.5,-3.9 4.5,-6.675 0,-3.15 -2.025,-6 -5.0625,-7.0125 2.4375,-0.975 4.0125,-3.3375 4.0125,-5.925 0,-2.4375 -1.3875,-4.8 -3.9375,-5.8875 -1.6875,-0.75 -3.4125,-0.75 -5.0625,-0.75 z m 3,2.5875 h 4.275 c 1.1625,0 2.4,0 3.6,0.4875 1.8,0.75 2.7375,2.25 2.7375,3.825 0,1.5375 -0.9375,3 -2.625,3.75 -1.2375,0.525 -2.55,0.5625 -3.75,0.5625 h -4.2375 z m 0,11.175 h 4.425 c 1.3875,0 2.7375,0.0375 4.0875,0.675 2.025,0.9375 3.075,2.8875 3.075,4.8375 0,1.95 -1.05,3.7875 -2.925,4.6125 -1.1625,0.525 -2.325,0.525 -3.4875,0.525 h -5.175 z"
         style="font-style:normal;font-variant:normal;font-weight:normal;font-stretch:normal;font-family:'Inconsolata-g for Powerline';-inkscape-font-specification:'Inconsolata-g for Powerline';fill:#003189;fill-opacity:1;stroke-width:0.9375"
         id="path4555" />
      <path
         d="m -360.08243,-399.26026 v 19.875 h 3.15 l -0.0375,-9.2625 c 0,-1.2 0.075,-2.6625 1.425,-4.8 1.8,-2.85 3.9,-3.225 5.325,-3.225 1.65,0 2.9625,0.375 3.525,1.0875 0.2625,0.3375 0.4125,0.7125 0.75,1.0125 l 1.4625,-3 c -1.2375,-1.275 -3.075,-2.175 -5.325,-2.175 -2.8875,0 -5.8125,1.4625 -7.125,4.3125 l 0.1125,-3.825 z"
         style="font-style:normal;font-variant:normal;font-weight:normal;font-stretch:normal;font-family:'Inconsolata-g for Powerline';-inkscape-font-specification:'Inconsolata-g for Powerline';fill:#003189;fill-opacity:1;stroke-width:0.9375"
         id="path4557" />
      <path
         d="m -321.92208,-389.24776 c 0,-6.8625 -4.3125,-10.4625 -8.8125,-10.4625 -5.0625,0 -9.4125,4.35 -9.4125,10.5 0,6.0375 4.3125,10.3125 9.3,10.3125 4.6875,0 8.925,-3.7875 8.925,-10.35 z m -9.0375,-7.8 c 2.85,0 5.8875,2.4375 5.8875,7.9125 0,4.9875 -2.85,7.5375 -5.7375,7.5375 -3.15,0 -6.0375,-3 -6.0375,-7.875 0,-4.875 2.85,-7.575 5.8875,-7.575 z"
         style="font-style:normal;font-variant:normal;font-weight:normal;font-stretch:normal;font-family:'Inconsolata-g for Powerline';-inkscape-font-specification:'Inconsolata-g for Powerline';fill:#003189;fill-opacity:1;stroke-width:0.9375"
         id="path4559" />
      <path
         d="m -318.74922,-399.29776 4.0125,19.9125 h 2.8125 l 3.4875,-12.8625 3.675,12.8625 h 2.925 c 1.35,-6.5625 2.4375,-13.2 3.3,-19.875 h -2.8875 c 0.075,2.4 -0.15,4.6125 -1.8375,15.9 l -4.2,-14.0625 h -1.9125 l -3.4125,14.1 -2.8875,-14.325 c -0.0375,-0.3 -0.075,-0.45 0.0375,-0.7875 0.075,-0.225 0.1875,-0.525 0.075,-0.8625 z"
         style="font-style:normal;font-variant:normal;font-weight:normal;font-stretch:normal;font-family:'Inconsolata-g for Powerline';-inkscape-font-specification:'Inconsolata-g for Powerline';fill:#003189;fill-opacity:1;stroke-width:0.9375"
         id="path4561" />
      <path
         d="m -278.15137,-396.63526 c -1.8375,-2.025 -4.5,-3.1125 -7.425,-3.1125 -4.6125,0 -7.6125,2.5875 -7.6125,5.55 0,3.45 3.75,4.725 4.8375,5.1 1.6875,0.6 3.8625,1.1625 5.325,1.8375 1.6125,0.7875 1.9875,1.8 1.9875,2.5125 0,1.875 -2.25,3.15 -5.1,3.15 -3.4125,0 -5.5875,-2.0625 -6.225,-2.775 -0.15,-0.15 -0.1125,-0.3 -0.1125,-0.45 0,-0.0375 0.0375,-0.3375 -0.1875,-0.4125 l -1.8,3.1125 c 2.325,2.175 5.325,3.15 8.3625,3.15 5.4375,0 8.2875,-3.1875 8.2875,-6.1875 0,-1.3875 -0.6,-3.1875 -2.925,-4.5 -2.25,-1.275 -5.4375,-1.6875 -7.275,-2.5875 -1.6125,-0.7875 -1.9875,-1.7625 -1.9875,-2.4375 0,-1.575 1.95,-2.7 4.2,-2.7 2.85,0 4.7625,1.7625 5.5125,2.7375 0.1125,0.15 0.075,0.225 0.075,0.375 0,0.2625 0.15,0.375 0.225,0.375 z"
         style="font-style:normal;font-variant:normal;font-weight:normal;font-stretch:normal;font-family:'Inconsolata-g for Powerline';-inkscape-font-specification:'Inconsolata-g for Powerline';fill:#003189;fill-opacity:1;stroke-width:0.9375"
         id="path4563" />
      <path
         d="m -263.20352,-399.74776 c -4.725,0 -9.15,3.375 -9.15,10.6125 0,6.6 4.125,10.1625 9.525,10.1625 2.85,0 5.4375,-1.0125 7.125,-3.075 l -1.725,-1.6875 c -1.3125,1.4625 -3.15,2.2125 -5.1375,2.2125 -2.6625,0 -6.525,-1.425 -6.75,-7.3875 h 14.1 c 0.1125,-1.35 0.075,-2.625 -0.1125,-3.7875 -0.9,-5.325 -4.6125,-7.05 -7.875,-7.05 z m -6,8.4375 c 0.6375,-4.6875 3.6375,-6.0375 5.775,-6.0375 3.225,0 5.5125,2.8125 5.1375,6.0375 z"
         style="font-style:normal;font-variant:normal;font-weight:normal;font-stretch:normal;font-family:'Inconsolata-g for Powerline';-inkscape-font-specification:'Inconsolata-g for Powerline';fill:#003189;fill-opacity:1;stroke-width:0.9375"
         id="path4565" />
      <path
         d="m -247.65567,-399.26026 v 19.875 h 3.15 l -0.0375,-9.2625 c 0,-1.2 0.075,-2.6625 1.425,-4.8 1.8,-2.85 3.9,-3.225 5.325,-3.225 1.65,0 2.9625,0.375 3.525,1.0875 0.2625,0.3375 0.4125,0.7125 0.75,1.0125 l 1.4625,-3 c -1.2375,-1.275 -3.075,-2.175 -5.325,-2.175 -2.8875,0 -5.8125,1.4625 -7.125,4.3125 l 0.1125,-3.825 z"
         style="font-style:normal;font-variant:normal;font-weight:normal;font-stretch:normal;font-family:'Inconsolata-g for Powerline';-inkscape-font-specification:'Inconsolata-g for Powerline';fill:#003189;fill-opacity:1;stroke-width:0.9375"
         id="path4567" />
    </g>
  </g>
</svg>
